<svg xmlns="http://www.w3.org/2000/svg" width="96" height="96" viewBox="0 0 25.4 25.4"><path d="m 41.869141,11.691406 c -8.034422,0 -13.785321,7.279881 -13.28711,13.324219 0.0028,1.072025 0.207406,2.12909 0.464844,3.167969 -3.232079,1.951786 -5.371682,5.329729 -5.373047,9.152344 0,5.982273 4.8542,10.851562 10.822266,10.851562 4.033766,0.111871 8.263182,0.12125 12.511718,0.103516 v 18.019531 h -2.152343 c -0.441658,-1.570307 -1.879326,-2.738281 -3.583985,-2.738281 -2.051221,0 -3.73438,1.683149 -3.734375,3.734375 -5e-6,2.051225 1.683154,3.734375 3.734375,3.734375 1.701642,0 3.135639,-1.164383 3.580078,-2.730469 h 6.314454 c 0.44444,1.566086 1.876483,2.730469 3.578125,2.730469 2.051217,0 3.734382,-1.68315 3.734375,-3.734375 7e-6,-2.051226 -1.683158,-3.734375 -3.734375,-3.734375 -1.704659,0 -3.140374,1.167974 -3.582032,2.738281 H 49.007812 V 48.287109 c 5.077992,-0.03233 10.156622,-0.09961 14.962891,-0.09961 4.611606,0 8.371094,-3.763386 8.371094,-8.384766 0,-4.352768 -3.442896,-7.701853 -7.683594,-8.105468 C 66.089511,25.46818 60.509485,20.492627 54.449219,21.945312 53.300324,15.813634 48.523555,11.691406 41.869141,11.691406 Z m 0,2 c 5.535053,0.0017 10.235624,4.016234 11.125,9.501953 0.101907,0.625183 0.75197,0.999347 1.34375,0.773438 0.72283,-0.276662 1.492367,-0.419015 2.265625,-0.419922 3.527187,0 6.371093,2.848553 6.371093,6.392578 -0.0017,0.504265 -0.08642,0.997751 -0.207031,1.484375 h -7.75 c -1.301992,0.09196 -1.20912,2.032779 0.0957,2 2.925176,-0.0076 5.967874,0.01897 8.857422,-0.01563 3.527188,0 6.371094,2.848515 6.371094,6.392578 0,3.543988 -2.843906,6.386719 -6.371094,6.386719 -10.521537,0.06575 -20.528721,0.02164 -29.474609,0 -4.883654,0 -8.822266,-3.946644 -8.822266,-8.851562 0.0012,-3.356637 1.88917,-6.419941 4.878906,-7.919922 0.434395,-0.217722 0.64944,-0.716245 0.509766,-1.181641 -0.3129,-1.046173 -0.475694,-2.134355 -0.478516,-3.226563 0.004,-6.262449 5.047498,-11.316406 11.285157,-11.316406 z m 0,2.414063 c -1.36252,-0.03362 -1.368554,2.025576 -0.0059,2 3.418481,0.0011 6.241805,2.415144 6.791016,5.802734 0.216146,1.319009 2.194661,0.99479 1.978515,-0.324219 -0.700581,-4.321511 -4.392606,-7.477155 -8.763671,-7.478515 z M 4.8867188,54.306641 c -1.0258409,0 -1.8828125,0.856973 -1.8828126,1.882812 -0.037058,8.745738 1e-7,17.453109 0,26.234375 0,1.025839 0.8569717,1.882813 1.8828126,1.882813 H 33.462891 c 1.02584,0 1.880859,-0.856974 1.880859,-1.882813 0.0022,-8.747604 0,-17.496556 0,-26.234375 0,-1.025839 -0.855019,-1.882812 -1.880859,-1.882812 z m 57.8671872,0 c -1.483124,0 -2.708984,1.225822 -2.708984,2.708984 -0.02896,8.190246 0,16.357541 0,24.582031 0,1.483162 1.225833,2.708985 2.708984,2.708985 h 27.541016 c 1.483151,0 2.708984,-1.225823 2.708984,-2.708985 8.9e-5,-8.19502 0,-16.388783 0,-24.582031 0,-1.483162 -1.22586,-2.708984 -2.708984,-2.708984 z M 5.0058594,56.308594 H 33.34375 v 4.162109 H 5.0058594 Z m 57.7480466,0 h 27.541016 c 0.409738,0 0.708984,0.29733 0.708984,0.707031 v 6.681641 H 62.044922 v -2.6875 h 4.857422 c 1.363604,0.03061 1.363604,-2.030615 0,-2 h -4.857422 v -1.994141 c 0,-0.409739 0.299246,-0.707031 0.708984,-0.707031 z m -33.683594,1.083984 c -1.303711,0.09543 -1.203081,2.039671 0.103516,2 h 2.169922 c 1.362434,0.02942 1.362434,-2.029419 0,-2 -0.752461,-1.9e-5 -1.529576,0 -2.273438,0 z m 42.267579,1.617188 c -1.301986,0.09196 -1.209115,2.032773 0.0957,2 h 1.470703 c 1.363604,0.03061 1.363604,-2.030615 0,-2 h -1.470703 c -0.03188,-0.0015 -0.06382,-0.0015 -0.0957,0 z m 5.99414,0 c -1.302536,0.09647 -1.20202,2.038519 0.103516,2 h 1.462891 c 1.363603,0.03061 1.363603,-2.030615 0,-2 h -1.462891 c -0.03448,-0.0018 -0.06903,-0.0018 -0.103516,0 z M 5.0058594,62.470703 H 33.34375 V 82.306641 H 5.0058594 Z m 8.4296876,1.949219 c -1.10678,0 -2.03125,0.924491 -2.03125,2.03125 v 6.9375 c 0,1.106759 0.92447,2.03125 2.03125,2.03125 h 11.486328 c 1.10678,0 2.021484,-0.924491 2.021484,-2.03125 0.01994,-2.31749 0,-4.599243 0,-6.9375 0,-1.106759 -0.914704,-2.03125 -2.021484,-2.03125 z m 27.835937,1.152344 c 0.889255,0 1.69222,0.644859 1.691407,1.736328 0,1.072964 -0.803479,1.732422 -1.691407,1.732422 -0.970337,0 -1.734378,-0.764019 -1.734375,-1.734375 -3e-6,-0.970318 0.764038,-1.734375 1.734375,-1.734375 z m 13.472657,0 c 0.970337,0 1.734378,0.764057 1.734375,1.734375 3e-6,0.970356 -0.764038,1.734375 -1.734375,1.734375 -0.970337,0 -1.734379,-0.764019 -1.734375,-1.734375 -4e-6,-0.970318 0.764038,-1.734375 1.734375,-1.734375 z m 7.300781,0.125 h 28.958984 v 7.21875 H 62.044922 v -2.605469 h 4.857422 c 1.304853,-0.02818 1.304853,-1.971824 0,-2 h -4.857422 z m -48.638676,0.722656 h 11.537109 v 2.933594 l -1.824218,-1.832032 c -0.190998,-0.192128 -0.451769,-0.29855 -0.722657,-0.294922 v -0.002 c -0.24305,0.004 -0.476338,0.0963 -0.65625,0.259766 l -2.916015,2.623047 -2.214844,-1.988281 c -0.198658,-0.181283 -0.461956,-0.274916 -0.730469,-0.259766 -0.211636,0.01379 -0.41341,0.0945 -0.576172,0.230469 l -1.896484,1.568359 z m 57.931645,1.890625 c -1.303142,0.09094 -1.210168,2.033906 0.0957,2 h 1.470703 c 1.304853,-0.02818 1.304853,-1.971824 0,-2 h -1.470703 c -0.03188,-0.0015 -0.06382,-0.0015 -0.0957,0 z m 5.99414,0 c -1.303717,0.09543 -1.203087,2.039678 0.103516,2 h 1.462891 c 1.304852,-0.02818 1.304852,-1.971824 0,-2 h -1.462891 c -0.03448,-0.0018 -0.06903,-0.0018 -0.103516,0 z M 22.375,69.603516 l 2.568359,2.582031 c 2.03e-4,0.349767 0,1.234378 0,1.234378 H 13.406247 v -1.166019 l 2.509766,-2.076172 2.892578,2.613282 c 0.890194,0.813537 2.195587,-0.346624 1.492187,-1.326172 z m 39.669922,5.314453 h 28.958984 v 6.679687 c 0,0.409739 -0.299283,0.708985 -0.708984,0.708985 H 62.753906 c -0.409712,0 -0.708984,-0.299284 -0.708984,-0.708985 v -1.992187 h 4.857422 c 1.334635,0 1.334635,-2.001953 0,-2.001953 h -4.857422 z m 9.388672,2.685547 c -1.334635,0 -1.334635,2.001953 0,2.001953 h 1.470703 c 1.334635,0 1.334635,-2.001953 0,-2.001953 z m 6.001953,0 c -1.334635,0 -1.334635,2.001953 0,2.001953 h 1.462891 c 1.334634,0 1.334634,-2.001953 0,-2.001953 z M 9.0507812,78.992188 c -1.3019899,0.09196 -1.2091187,2.032778 0.095703,2 h 7.5214848 c 1.363604,0.03061 1.363604,-2.030615 0,-2 H 9.1464844 c -0.031883,-0.0015 -0.06382,-0.0015 -0.095703,0 z m 11.1894528,0 c -1.304947,0.09059 -1.209908,2.036982 0.09766,2 h 2.509765 c 1.363604,0.03061 1.363604,-2.030615 0,-2 h -2.509765 c -0.03253,-0.0016 -0.06513,-0.0016 -0.09766,0 z m 6.357422,0 c -1.30253,0.09647 -1.202014,2.038512 0.103516,2 h 2.509766 c 1.363603,0.03061 1.363603,-2.030615 0,-2 h -2.509766 c -0.03448,-0.0018 -0.06903,-0.0018 -0.103516,0 z" color="#000" font-family="sans-serif" font-weight="400" overflow="visible" transform="scale(.26458)" style="line-height:normal;font-variant-ligatures:normal;font-variant-position:normal;font-variant-caps:normal;font-variant-numeric:normal;font-variant-alternates:normal;font-feature-settings:normal;text-indent:0;text-align:start;text-decoration-line:none;text-decoration-style:solid;text-decoration-color:#000;text-transform:none;text-orientation:mixed;shape-padding:0;isolation:auto;mix-blend-mode:normal"/></svg>